<mxfile server="" modified="2020-06-25T06:40:41.728Z" agent="5.0 (Macintosh; Intel Mac OS X 10_15_5) AppleWebKit/537.36 (KHTML, like Gecko) Code/1.46.1 Chrome/78.0.3904.130 Electron/7.3.1 Safari/537.36" etag="OiFbIRKbBHRPl_zoxJpu" version="13.1.3">
    <diagram id="6hGFLwfOUW9BJ-s0fimq" name="Page-1">
        <mxGraphModel dx="738" dy="580" grid="1" gridSize="10" guides="1" tooltips="1" connect="1" arrows="1" fold="1" page="1" pageScale="1" pageWidth="827" pageHeight="1169" math="0" shadow="0">
            <root>
                <mxCell id="0"/>
                <mxCell id="1" parent="0"/>
                <mxCell id="5" value="" style="edgeStyle=orthogonalEdgeStyle;rounded=0;orthogonalLoop=1;jettySize=auto;html=1;fontColor=#FFFFFF;" parent="1" source="3" target="4" edge="1">
                    <mxGeometry relative="1" as="geometry"/>
                </mxCell>
                <mxCell id="3" value="用户A 创建了1个组织&lt;br&gt;系统为此组织生成了非对称加密密钥&lt;br&gt;公钥开放，私钥由用户自身公钥加密填充到了用户 - 组织 对应关系数据库记录中&lt;br&gt;用户的私钥是由用户在本地加密提交到数据库的，所以即便拿到加密后的私钥也没法用" style="rounded=0;whiteSpace=wrap;html=1;fontColor=#FFFFFF;align=left;" parent="1" vertex="1">
                    <mxGeometry x="100.12" y="140" width="215" height="130" as="geometry"/>
                </mxCell>
                <mxCell id="7" value="" style="edgeStyle=orthogonalEdgeStyle;rounded=0;orthogonalLoop=1;jettySize=auto;html=1;fontColor=#FFFFFF;" parent="1" source="4" target="6" edge="1">
                    <mxGeometry relative="1" as="geometry"/>
                </mxCell>
                <mxCell id="4" value="用户A 在组织内添加了几个密码记录&lt;br&gt;密码记录中用户名、站点、密码 等关键字段都由 组织公钥 加密&lt;br&gt;（只有用户对应关系那里有用户本地加密后的组织私钥可解密）" style="rounded=0;whiteSpace=wrap;html=1;fontColor=#FFFFFF;align=left;" parent="1" vertex="1">
                    <mxGeometry x="67" y="320" width="281.25" height="80" as="geometry"/>
                </mxCell>
                <mxCell id="12" style="edgeStyle=orthogonalEdgeStyle;rounded=0;orthogonalLoop=1;jettySize=auto;html=1;entryX=0;entryY=0.5;entryDx=0;entryDy=0;fontColor=#FFFFFF;" parent="1" source="6" target="9" edge="1">
                    <mxGeometry relative="1" as="geometry"/>
                </mxCell>
                <mxCell id="6" value="用户A 将 用户B 邀请入组织" style="rounded=0;whiteSpace=wrap;html=1;fontColor=#FFFFFF;" parent="1" vertex="1">
                    <mxGeometry x="101.38" y="440" width="212.5" height="30" as="geometry"/>
                </mxCell>
                <mxCell id="14" value="" style="edgeStyle=orthogonalEdgeStyle;rounded=0;orthogonalLoop=1;jettySize=auto;html=1;fontColor=#FFFFFF;" parent="1" source="9" target="13" edge="1">
                    <mxGeometry relative="1" as="geometry"/>
                </mxCell>
                <mxCell id="9" value="用户B 在系统注册账户&lt;br&gt;也有了开放的公钥信息" style="rounded=0;whiteSpace=wrap;html=1;fontColor=#FFFFFF;align=left;" parent="1" vertex="1">
                    <mxGeometry x="492" y="130" width="210" height="50" as="geometry"/>
                </mxCell>
                <mxCell id="16" value="" style="edgeStyle=orthogonalEdgeStyle;rounded=0;orthogonalLoop=1;jettySize=auto;html=1;fontColor=#FFFFFF;" parent="1" source="13" target="15" edge="1">
                    <mxGeometry relative="1" as="geometry"/>
                </mxCell>
                <mxCell id="13" value="用户A 确认了 用户B 的加入信息&lt;br&gt;在本地将 组织私钥 使用 用户 B 的公钥加密后 更新到了 用户B - 组织的对应关系数据库记录中&lt;br&gt;（此时，用户B 有了解密组织内数据的能力）" style="rounded=0;whiteSpace=wrap;html=1;fontColor=#FFFFFF;align=left;" parent="1" vertex="1">
                    <mxGeometry x="447" y="260" width="300" height="100" as="geometry"/>
                </mxCell>
                <mxCell id="15" value="至于能读取哪些数据是后端的鉴权来补充的&lt;br&gt;现在这个粒度 是 组织级 的，如果想针对 单条记录的数据绝对安全的保证，那就要把这种非对称加密的模式下降到每条记录中" style="rounded=0;whiteSpace=wrap;html=1;fontColor=#FFFFFF;align=left;" parent="1" vertex="1">
                    <mxGeometry x="434.5" y="412.5" width="325" height="65" as="geometry"/>
                </mxCell>
            </root>
        </mxGraphModel>
    </diagram>
</mxfile>